<svg width="16" height="16" version="1.1" viewBox="0 0 16 16" xmlns="http://www.w3.org/2000/svg">
 <path d="m8.1992 4 0.26758 1.334 1.334-1.334h-1.6016z" fill="#ff7070" fill-rule="evenodd"/>
 <path d="m9.8008 4-1.334 1.334 1.0664 5.332 3.4668-3.4668v-3.1992h-3.1992z" fill="#7aff70" fill-rule="evenodd"/>
 <path d="m8 1v2h6v10h-4v2h6v-14zm-5 1v3.1328l-1.4453-0.96484-1.1094 1.6641 3 2c0.3359 0.2239 0.77347 0.2239 1.1094 0l3-2-1.1094-1.6641-1.4453 0.96484v-3.1328zm-0.5 8c-0.831 0-1.5 0.669-1.5 1.5v1.5h-1v2h8v-2h-1v-1.5c0-0.831-0.669-1.5-1.5-1.5z" fill="#a5efac"/>
 <path d="m13 7.1992-3.4668 3.4668 0.26758 1.334h3.1992v-4.8008z" fill="#70bfff"/>
</svg>
