<?xml version="1.0" encoding="UTF-8" standalone="no"?>
<svg
   width="16"
   height="16"
   version="1.1"
   viewBox="0 0 16 16"
   id="svg4"
   xmlns="http://www.w3.org/2000/svg"
   xmlns:svg="http://www.w3.org/2000/svg">
  <defs
     id="defs4" />
  <path
     id="rect4"
     style="fill:#ffffff;fill-opacity:1;fill-rule:evenodd;stroke-width:32;paint-order:fill markers stroke"
     d="M 0,0 V 6 H 6 V 0 Z M 1,1 H 5 V 5 H 1 Z" />
  <rect
     style="fill:#ffffff;fill-opacity:1;fill-rule:evenodd;stroke-width:32;paint-order:fill markers stroke"
     id="rect4-4-4"
     x="2"
     y="-4"
     width="2"
     height="2"
     transform="rotate(90)" />
  <path
     id="rect4-9"
     style="fill:#ffffff;fill-opacity:1;fill-rule:evenodd;stroke-width:32;paint-order:fill markers stroke"
     d="m 10,0 v 6 h 6 V 0 Z m 1,1 h 4 v 4 h -4 z" />
  <rect
     style="fill:#ffffff;fill-opacity:1;fill-rule:evenodd;stroke-width:32;paint-order:fill markers stroke"
     id="rect4-4-4-7"
     x="2"
     y="-14"
     width="2"
     height="2"
     transform="rotate(90)" />
  <path
     id="rect4-90"
     style="fill:#ffffff;fill-opacity:1;fill-rule:evenodd;stroke-width:32;paint-order:fill markers stroke"
     d="m 0,10 v 6 h 6 v -6 z m 1,1 h 4 v 4 H 1 Z" />
  <rect
     style="fill:#ffffff;fill-opacity:1;fill-rule:evenodd;stroke-width:32;paint-order:fill markers stroke"
     id="rect4-4-4-8"
     x="12"
     y="-4"
     width="2"
     height="2"
     transform="rotate(90)" />
  <rect
     style="fill:#ffffff;fill-opacity:1;fill-rule:evenodd;stroke-width:32;paint-order:fill markers stroke"
     id="rect5"
     width="2"
     height="2"
     x="10"
     y="12" />
  <rect
     style="fill:#ffffff;fill-opacity:1;fill-rule:evenodd;stroke-width:32;paint-order:fill markers stroke"
     id="rect5-31"
     width="2"
     height="2"
     x="14"
     y="8" />
  <rect
     style="fill:#ffffff;fill-opacity:1;fill-rule:evenodd;stroke-width:32;paint-order:fill markers stroke"
     id="rect5-3"
     width="2"
     height="2"
     x="8"
     y="14" />
  <rect
     style="fill:#ffffff;fill-opacity:1;fill-rule:evenodd;stroke-width:32;paint-order:fill markers stroke"
     id="rect5-0"
     width="2"
     height="2"
     x="14"
     y="12" />
  <rect
     style="fill:#ffffff;fill-opacity:1;fill-rule:evenodd;stroke-width:32;paint-order:fill markers stroke"
     id="rect5-0-2"
     width="2"
     height="2"
     x="14"
     y="14" />
  <rect
     style="fill:#ffffff;fill-opacity:1;fill-rule:evenodd;stroke-width:32;paint-order:fill markers stroke"
     id="rect5-0-2-6"
     width="2"
     height="2"
     x="12"
     y="14" />
  <rect
     style="fill:#ffffff;fill-opacity:1;fill-rule:evenodd;stroke-width:32;paint-order:fill markers stroke"
     id="rect5-0-2-7"
     width="2"
     height="2"
     x="12"
     y="10" />
  <rect
     style="fill:#ffffff;fill-opacity:1;fill-rule:evenodd;stroke-width:32;paint-order:fill markers stroke"
     id="rect5-5"
     width="2"
     height="2"
     x="8"
     y="8" />
  <rect
     style="fill:#ffffff;fill-opacity:1;fill-rule:evenodd;stroke-width:32;paint-order:fill markers stroke"
     id="rect5-5-4"
     width="2"
     height="2"
     x="8"
     y="10" />
  <rect
     style="fill:#ffffff;fill-opacity:1;fill-rule:evenodd;stroke-width:32;paint-order:fill markers stroke"
     id="rect5-5-7"
     width="2"
     height="2"
     x="10"
     y="8" />
</svg>
