<?xml version="1.0" encoding="UTF-8" standalone="no"?>
<svg
   width="16"
   height="16"
   version="1.1"
   viewBox="0 0 16 16"
   id="svg4"
   xmlns="http://www.w3.org/2000/svg"
   xmlns:svg="http://www.w3.org/2000/svg">
  <defs
     id="defs4" />
  <path
     id="rect4"
     style="fill:#8eef97;fill-opacity:1;fill-rule:evenodd;stroke-width:32;paint-order:fill markers stroke"
     d="M 0,0 V 6 H 6 V 0 Z M 1,1 H 5 V 5 H 1 Z" />
  <path
     id="rect4-4-4"
     style="fill:#8eef97;fill-rule:evenodd;stroke-width:32;paint-order:fill markers stroke"
     transform="rotate(90)"
     d="m 2,-4 h 2 v 2 H 2 Z" />
  <path
     id="rect4-9"
     style="fill:#8eef97;fill-opacity:1;fill-rule:evenodd;stroke-width:32;paint-order:fill markers stroke"
     d="m 10,0 v 6 h 6 V 0 Z m 1,1 h 4 v 4 h -4 z" />
  <path
     id="rect4-4-4-7"
     style="fill:#8eef97;fill-rule:evenodd;stroke-width:32;paint-order:fill markers stroke"
     transform="rotate(90)"
     d="m 2,-14 h 2 v 2 H 2 Z" />
  <path
     id="rect4-90"
     style="fill:#8eef97;fill-opacity:1;fill-rule:evenodd;stroke-width:32;paint-order:fill markers stroke"
     d="m 0,10 v 6 h 6 v -6 z m 1,1 h 4 v 4 H 1 Z" />
  <path
     id="rect4-4-4-8"
     style="fill:#8eef97;fill-rule:evenodd;stroke-width:32;paint-order:fill markers stroke"
     transform="rotate(90)"
     d="m 12,-4 h 2 v 2 h -2 z" />
  <path
     id="rect5"
     style="fill:#8eef97;fill-rule:evenodd;stroke-width:32;paint-order:fill markers stroke"
     d="m 10,12 h 2 v 2 h -2 z" />
  <path
     id="rect5-31"
     style="fill:#8eef97;fill-rule:evenodd;stroke-width:32;paint-order:fill markers stroke"
     d="m 14,8 h 2 v 2 h -2 z" />
  <path
     id="rect5-3"
     style="fill:#8eef97;fill-rule:evenodd;stroke-width:32;paint-order:fill markers stroke"
     d="m 8,14 h 2 v 2 H 8 Z" />
  <path
     id="rect5-0"
     style="fill:#8eef97;fill-opacity:1;fill-rule:evenodd;stroke-width:32;paint-order:fill markers stroke"
     d="m 14,12 v 2 h -2 v 2 h 4 v -4 z" />
  <path
     id="rect5-0-2-7"
     style="fill:#8eef97;fill-rule:evenodd;stroke-width:32;paint-order:fill markers stroke"
     d="m 12,10 h 2 v 2 h -2 z" />
  <path
     id="rect5-5"
     style="fill:#8eef97;fill-opacity:1;fill-rule:evenodd;stroke-width:32;paint-order:fill markers stroke"
     d="m 8,8 v 4 h 2 v -2 h 2 V 8 Z" />
</svg>
